<?xml version="1.0" encoding="UTF-8"?>
<svg id="Capa_1" data-name="Capa 1" xmlns="http://www.w3.org/2000/svg" viewBox="0 0 241 285">
  <defs>
    <style>
      .cls-1 {
        fill: #401424;
      }
    </style>
  </defs>
  <path class="cls-1" d="M126.19,53.48h.87l.87,.08h.02s.83,.16,.83,.16l.84,.24,.81,.32,.78,.39,.74,.46,.7,.53,.64,.59,.59,.64,.53,.7,.46,.74,.39,.78,.06,.15,.25,.66,.12,.41-18.14,.02,.1-.35,.26-.7v-.03s.31-.64,.31-.64l.36-.65,.41-.62,.46-.58,.49-.53,.66-.6,.7-.53,.74-.46,.78-.39,.81-.32,.84-.24h.04s.81-.16,.81-.16l.87-.08Zm-.31-13.56c-.21,0-.42,0-.63,.03l-1.49,.14c-.21,.02-.41,.05-.62,.09l-1.47,.28c-.21,.04-.41,.09-.61,.14l-1.44,.41c-.2,.06-.4,.12-.59,.2l-1.4,.54c-.19,.08-.39,.16-.57,.25l-1.34,.67c-.19,.09-.37,.19-.55,.3l-1.27,.79c-.18,.11-.35,.23-.52,.35l-1.2,.9c-.17,.13-.33,.26-.48,.4l-1.11,1.01c-.14,.13-.28,.27-.41,.41l-.86,.94c-.12,.13-.24,.27-.35,.4l-.79,1c-.11,.14-.21,.28-.31,.43l-.71,1.06c-.1,.15-.19,.3-.28,.45l-.62,1.11c-.09,.15-.17,.31-.24,.47l-.53,1.16c-.07,.16-.14,.33-.2,.49l-.44,1.2c-.06,.17-.12,.34-.16,.51l-.35,1.23c-.05,.17-.09,.34-.12,.52l-.25,1.25c-.02,.08-.03,.15-.04,.23-.02,.1-.03,.2-.04,.29l-.09,.78-43.6,.04c-5.71,0-10.33,4.64-10.33,10.35,0,5.71,4.63,10.33,10.34,10.33h0l132.47-.12c5.71,0,10.33-4.64,10.33-10.35,0-5.71-4.63-10.33-10.34-10.33h0l-43.19,.04-.02-.27c-.02-.21-.05-.42-.09-.62l-.03-.18-.24-1.29c-.04-.21-.09-.41-.14-.61l-.41-1.44c-.06-.2-.12-.4-.2-.59l-.54-1.4c-.08-.19-.16-.39-.25-.57l-.67-1.34c-.09-.19-.19-.37-.3-.55l-.79-1.27c-.11-.18-.23-.35-.35-.52l-.9-1.2c-.13-.17-.26-.33-.4-.48l-1.01-1.11c-.14-.15-.29-.3-.44-.44l-1.11-1.01c-.15-.14-.31-.27-.48-.4l-1.2-.9c-.17-.13-.34-.24-.52-.35l-1.27-.79c-.18-.11-.36-.21-.55-.3l-1.34-.67c-.19-.09-.38-.18-.57-.25l-1.4-.54c-.19-.08-.39-.14-.59-.2l-1.44-.41c-.2-.06-.4-.11-.61-.14l-1.47-.28c-.21-.04-.41-.07-.62-.09l-1.49-.14c-.21-.02-.42-.03-.62-.03h-1.5Zm.89,69.32c-3.84,0-6.96,3.12-6.96,6.96v82.44c0,3.84,3.11,6.96,6.96,6.96s6.96-3.12,6.96-6.96V116.2c0-3.84-3.11-6.96-6.96-6.96h0Zm-30.26,.37c-3.84,0-6.96,3.12-6.96,6.96v82.44c0,3.84,3.12,6.96,6.96,6.96s6.96-3.12,6.96-6.96V116.56c0-3.84-3.12-6.96-6.96-6.96h0Zm60.34,.31c-3.84,0-6.96,3.11-6.96,6.96v82.44c0,3.84,3.11,6.96,6.96,6.96s6.96-3.11,6.96-6.96V116.87c0-3.84-3.12-6.96-6.96-6.96h0Zm-85.61-24.36h0s-6.61,0-6.61,0h-6.61c-.04,.28-.06,.57-.06,.87v99.88c0,.05,0,.11,0,.16,.29,12.08,.25,28.85,9.46,38.06,9.18,9.18,26.02,9.28,38.21,9.66,.07,0,.14,0,.21,0h41.22s.07,0,.1,0c11.99-.19,28.72,0,37.94-9.24,9.16-9.16,9.37-26.1,9.83-38.4,0-.08,0-.17,0-.25V86.89s0-.05,0-.07h0c0-.43-.05-.86-.13-1.27h-13.06s0,0,0,0c-.08,.41-.13,.83-.13,1.27h0s0,0,0,0c0,.02,0,.05,0,.07v99.3h0c-.55,14.68-1.36,24.76-5.93,29.32-4.51,4.51-14.23,5.11-28.68,5.33h-41.06c-14.59-.46-24.56-1.21-29.11-5.76-4.53-4.53-5.21-14.36-5.55-28.86V86.82s0-.4,0-.4c0-.29-.02-.58-.06-.87h0Zm0,0"/>
</svg>