<?xml version="1.0" encoding="UTF-8"?>
<svg id="Capa_1" data-name="Capa 1" xmlns="http://www.w3.org/2000/svg" viewBox="0 0 241 285">
  <defs>
    <style>
      .cls-1 {
        fill: #401424;
      }
    </style>
  </defs>
  <path class="cls-1" d="M215,165.43v26.96c0,1.57-1.28,2.84-2.85,2.84h-6.72l.02,8.88c0,1.57-1.27,2.85-2.85,2.85l-17.2,.04h-.01c-1.57,0-2.84-1.27-2.85-2.84v-8.93H52.47v8.88c.01,1.57-1.26,2.85-2.83,2.85l-17.22,.04c-.76,0-1.48-.3-2.02-.82-.54-.54-.83-1.26-.83-2.02l-.02-8.93h-6.7c-1.58,0-2.85-1.27-2.85-2.84v-44.19c0-3.52,.68-6.93,2.05-10.15,1.31-3.11,3.19-5.89,5.58-8.29,2.39-2.39,5.18-4.27,8.29-5.58,.5-.21,1.01-.41,1.52-.59v-31.16c0-4.78,.93-9.41,2.78-13.78,1.79-4.22,4.34-8,7.59-11.25s7.03-5.8,11.24-7.58c4.37-1.84,9-2.78,13.78-2.78h89.34c4.77,0,9.41,.93,13.77,2.78,4.22,1.78,8,4.33,11.25,7.58,3.25,3.25,5.8,7.03,7.58,11.25,1.84,4.37,2.79,9,2.79,13.78v31.16c.51,.17,1.02,.37,1.52,.59,3.1,1.31,5.89,3.19,8.28,5.58s4.28,5.18,5.59,8.29c1.36,3.21,2.05,6.62,2.05,10.15v17.23Zm-5.7,24.11v-24.11H25.7v24.11H209.3Zm0-29.81v-11.53c0-5.44-2.12-10.56-5.96-14.4-3.85-3.85-8.96-5.96-14.4-5.96H46.07c-5.44,0-10.56,2.12-14.4,5.96s-5.96,8.96-5.96,14.4v11.53H209.3Zm-9.56,41.54v-5.88s-11.51,.02-11.51,.02v5.88s11.51-.02,11.51-.02Zm-7.88-79.13v-29.69c0-4.01-.78-7.9-2.33-11.56-1.51-3.54-3.65-6.71-6.37-9.44s-5.9-4.87-9.44-6.36c-3.66-1.56-7.54-2.34-11.55-2.34H72.83c-4.01,0-7.89,.78-11.55,2.34-3.54,1.49-6.72,3.63-9.45,6.36s-4.87,5.9-6.36,9.44c-1.54,3.66-2.33,7.56-2.33,11.56v29.69h21.75v-14.93c0-6.68,5.44-12.12,12.12-12.12h80.98c6.68,0,12.12,5.44,12.12,12.12v14.93h21.75Zm-27.45,0v-14.93c0-3.54-2.89-6.42-6.42-6.42H77.01c-3.55,0-6.42,2.89-6.42,6.42v14.93h93.82ZM46.78,201.26v-5.88s-11.53,.02-11.53,.02v5.88s11.53-.02,11.53-.02Z"/>
  <rect class="cls-1" x="25.7" y="165.43" width="183.6" height="24.11"/>
  <rect class="cls-1" x="188.23" y="195.4" width="11.5" height="5.88" transform="translate(-.42 .41) rotate(-.12)"/>
  <path class="cls-1" d="M191.86,92.44v29.69h-21.75v-14.93c0-6.68-5.44-12.12-12.12-12.12H77.01c-6.68,0-12.12,5.44-12.12,12.12v14.93h-21.75v-29.69c0-4.01,.78-7.9,2.33-11.56,1.49-3.54,3.63-6.71,6.36-9.44s5.91-4.87,9.45-6.36c3.66-1.56,7.54-2.34,11.55-2.34h89.34c4.01,0,7.89,.78,11.55,2.34,3.54,1.49,6.71,3.63,9.44,6.36s4.87,5.9,6.37,9.44c1.54,3.66,2.33,7.56,2.33,11.56Z"/>
  <rect class="cls-1" x="35.26" y="195.4" width="11.51" height="5.88" transform="translate(-.42 .09) rotate(-.12)"/>
</svg>