<?xml version="1.0" encoding="UTF-8"?>
<svg id="Capa_1" data-name="Capa 1" xmlns="http://www.w3.org/2000/svg" viewBox="0 0 241 285">
  <defs>
    <style>
      .cls-1 {
        fill: #401424;
      }

      .cls-2 {
        fill: #fefefe;
      }
    </style>
  </defs>
  <path class="cls-1" d="M42.25,234c-3.54-.96-6.81-2.32-9.23-5.23-2.46-2.96-3.45-6.33-3.45-10.07,0-26.13,0-52.25,0-78.38,0-23.56,0-47.13,0-70.69,0-7.61,4.26-13.16,11.39-14.95,1.95-.49,3.94-.39,5.92-.39,3.2-.01,6.41-.05,9.61,.02,1.21,.03,1.69-.24,1.63-1.53-.11-2.37-.1-4.75,.02-7.12,.09-1.86,1.08-3.21,3.05-3.57,1.71-.32,3,.42,3.85,1.85,.46,.78,.46,1.68,.46,2.55,.01,2.12,.07,4.25-.02,6.37-.05,1.19,.41,1.45,1.54,1.44,6.02-.05,12.04-.06,18.07,0,1.23,.01,1.71-.26,1.64-1.54-.1-2.12-.05-4.25-.02-6.37,.04-2.76,1.39-4.38,3.63-4.41,2.27-.03,3.72,1.7,3.75,4.51,.02,2.12,.04,4.25-.01,6.37-.03,.97,.13,1.45,1.32,1.43,5.25-.06,10.51-.06,15.76,0,1.12,.01,1.42-.36,1.39-1.4-.07-2.31-.06-4.63,0-6.94,.05-2.43,1.52-3.99,3.65-3.99,2.09,0,3.61,1.6,3.67,4.01,.06,2.37,.05,4.75,0,7.12-.02,.88,.23,1.19,1.18,1.18,5.96-.04,11.92-.04,17.87,0,1.07,0,1.29-.4,1.27-1.32-.05-2.25-.04-4.5,0-6.75,.04-2.61,1.41-4.2,3.59-4.24,2.21-.04,3.71,1.65,3.76,4.31,.04,2.19,.08,4.38-.02,6.56-.05,1.18,.34,1.46,1.51,1.45,4.42-.07,8.84-.05,13.26-.02,9.4,.05,15.6,6.11,15.65,15.29,.02,3.94,0,7.88,0,11.81,0,.76-.04,1.4-.69,2.02-3.38,3.24-6.71,6.53-10.05,9.81-.66-.37-.35-.93-.35-1.36-.02-7.37-.01-14.75-.02-22.13,0-3.42-1.24-4.67-4.69-4.69-4.36-.03-8.71,.05-13.07-.04-1.3-.03-1.65,.39-1.55,1.57,.1,1.24,.07,2.5,0,3.75-.12,2.45-1.56,3.94-3.72,3.93-2.18,0-3.54-1.47-3.63-3.97-.04-1.31-.06-2.63,0-3.94,.04-.94-.23-1.34-1.28-1.33-5.96,.04-11.92,.04-17.87,0-.96,0-1.2,.3-1.16,1.18,.07,1.37,.06,2.75,0,4.12-.1,2.44-1.55,3.94-3.71,3.94-2.18,0-3.56-1.5-3.63-3.97-.04-1.31-.05-2.63,0-3.94,.04-.93-.21-1.34-1.26-1.33-5.38,.04-10.76,.04-16.14,0-.88,0-1.08,.33-1.05,1.1,.05,1.37,.06,2.75,0,4.12-.11,2.55-1.59,4.07-3.83,4-2.15-.07-3.44-1.55-3.53-4.07,0-.19,0-.37,0-.56q-.04-4.58-4.83-4.58c-4.93,0-9.87,.04-14.8-.03-1.25-.02-1.68,.33-1.62,1.57,.07,1.55,.04,3.13-.14,4.67-.21,1.81-1.58,2.93-3.35,3-1.88,.07-3.23-.98-3.69-2.86-.4-1.67-.16-3.36-.18-5.04,0-.89-.12-1.36-1.23-1.34-4.04,.06-8.07-.03-12.11,.05-2.83,.06-4.11,1.44-4.12,4.28-.02,5.25,0,10.5,0,15.75,0,44.13,0,88.25,0,132.38,0,.5,0,1,0,1.5,.06,2.92,1.35,4.2,4.39,4.2,10.76,.02,21.53,.02,32.29,0,1.13,0,2.07,.23,3.05,.82,2.86,1.75,6.09,2.35,9.2,1.14,5.22-2.03,10.59-1.99,16.03-1.97,18.64,.06,37.29,.02,55.93,.02,4.2,0,5.26-1.02,5.26-5.06,0-12.81,.02-25.63-.03-38.44,0-1.16,.32-1.97,1.17-2.78,3.24-3.07,6.4-6.22,9.95-9.69,0,1.08,0,1.67,0,2.27,0,15.81-.17,31.63,.07,47.44,.13,8.43-3.61,15.16-13.11,17.07H42.25Z"/>
  <path class="cls-1" d="M111.94,160.27c-.85-.43-1.55-.25-2.22-.25-14.03-.01-28.06,0-42.09-.01-3.36,0-5.01-1.1-5-3.34,0-2.23,1.62-3.29,5.03-3.29,16.53,0,33.06-.01,49.59,.02,1.24,0,2.12-.33,3-1.2,16.6-16.25,33.24-32.45,49.82-48.71,1.16-1.14,1.69-1.04,2.78,.04,9.24,9.11,18.54,18.16,27.86,27.19,.98,.95,1.25,1.46,.09,2.58-23.69,23.03-47.33,46.11-70.96,69.19-1.3,1.27-2.77,2.13-4.53,2.67-11.99,3.7-23.97,7.45-35.95,11.18-.36,.11-.72,.25-1.09,.34-2.71,.66-4.34-.92-3.52-3.53,1.45-4.65,2.99-9.27,4.5-13.9,2.39-7.3,4.82-14.58,7.16-21.9,.63-1.97,1.64-3.59,3.15-5.03,4.15-3.95,8.22-7.98,12.4-12.05Z"/>
  <path class="cls-1" d="M221,110.05c-.11,1.98-.73,3.96-2.24,5.5-3.59,3.66-7.29,7.2-10.91,10.83-.63,.63-.99,.45-1.53-.08-9.64-9.43-19.28-18.84-28.96-28.24-.66-.64-.67-1.01-.01-1.63,3.47-3.33,6.87-6.74,10.37-10.04,3.13-2.94,8.31-4.13,12.56,.27,5.88,6.1,12.08,11.9,18.17,17.8,1.57,1.52,2.54,3.26,2.55,5.6Z"/>
  <path class="cls-1" d="M102.05,130.5c-11.59,0-23.17,0-34.76,0-.7,0-1.43,.03-2.1-.14-1.67-.45-2.63-1.58-2.53-3.3,.09-1.58,.97-2.69,2.66-2.97,.75-.13,1.52-.17,2.29-.17,22.92,0,45.83,0,68.75,0,3.41,0,5.03,1.05,5.06,3.27,.03,2.22-1.62,3.32-4.99,3.32-11.46,0-22.92,0-34.38,0Z"/>
  <path class="cls-1" d="M102.04,103.91c-11.52,0-23.05,0-34.57,0-.64,0-1.29,.02-1.92-.06-1.68-.23-2.92-1.6-2.93-3.19,0-1.61,1.19-2.96,2.89-3.19,.69-.09,1.4-.1,2.11-.1,22.92,0,45.83,0,68.75,0,.7,0,1.41,0,2.11,.09,1.71,.22,2.93,1.56,2.94,3.15,.02,1.56-1.23,2.99-2.9,3.23-.69,.1-1.4,.07-2.11,.07-11.46,0-22.92,0-34.38,0Z"/>
  <path class="cls-2" d="M111.5,174.05c-2.15,.02-3.45-2.15-2.33-3.96,.35-.58,.87-1.08,1.36-1.56,18.29-17.86,36.59-35.71,54.89-53.55,.36-.35,.73-.7,1.13-1.01,1.24-.95,2.52-.95,3.64,.11,1.2,1.13,1.14,2.44,.14,3.7-.27,.34-.6,.65-.92,.96-18.39,17.94-36.78,35.88-55.17,53.81-.77,.75-1.52,1.54-2.75,1.5Z"/>
  <path class="cls-2" d="M100.79,182.82c6.21,6.07,12.34,12.07,18.56,18.14-4.3,1.35-8.78,2.66-13.17,4.18-1.75,.61-2.87,.39-4.09-1-1.61-1.85-3.45-3.51-5.26-5.18-.76-.7-.91-1.31-.58-2.28,1.56-4.6,3.04-9.23,4.55-13.86Z"/>
</svg>