<?xml version="1.0" encoding="UTF-8"?>
<svg id="Capa_1" data-name="Capa 1" xmlns="http://www.w3.org/2000/svg" viewBox="0 0 241 285">
  <defs>
    <style>
      .cls-1 {
        fill: #401424;
      }
    </style>
  </defs>
  <polygon class="cls-1" points="110.26 47.25 110.26 34 74.42 34 74.42 47.25 74.42 73.92 110.26 73.92 110.26 47.25"/>
  <path class="cls-1" d="M90.38,122.05l16.7-16.66c3.74-3.78,8.74-5.83,14.04-5.83,2.65,0,5.27,.53,7.72,1.56,2.98-7.32,10.17-12.39,18.38-12.39h18.42V40.62c0-3.68-2.98-6.62-6.63-6.62h-35.51v46.54c0,3.68-2.98,6.63-6.62,6.63h-49.09c-3.64,0-6.63-2.95-6.63-6.63V34H25.66c-3.68,0-6.63,2.95-6.63,6.62V174.02c0,3.64,2.95,6.62,6.63,6.62h48.1v-18.45c0-8.22,5.07-15.4,12.36-18.38-3.05-7.29-1.52-15.93,4.27-21.76Zm-28.92,18.15c3.64,0,6.62,2.98,6.62,6.62s-2.98,6.63-6.62,6.63h-9.9c-3.68,0-6.63-2.95-6.63-6.63s2.95-6.62,6.63-6.62h9.9Z"/>
  <path class="cls-1" d="M225.2,155.63l-11.26-1.36c-.63-1.76-1.36-3.48-2.12-5.17l6.99-8.91c2.09-2.65,1.85-6.39-.53-8.78l-16.66-16.69c-2.38-2.35-6.16-2.58-8.78-.5l-8.94,6.99c-1.66-.79-3.38-1.49-5.13-2.12l-1.36-11.26c-.4-3.35-3.25-5.86-6.59-5.86h-23.58c-3.35,0-6.16,2.52-6.56,5.86l-1.36,11.26c-1.76,.63-3.48,1.32-5.17,2.12l-8.91-6.99c-2.65-2.09-6.43-1.85-8.78,.5l-16.69,16.69c-2.35,2.39-2.58,6.13-.53,8.78l7.02,8.91c-.79,1.69-1.49,3.41-2.12,5.17l-11.3,1.36c-3.31,.4-5.83,3.21-5.83,6.56v23.58c0,3.38,2.52,6.19,5.86,6.59l11.26,1.36c.63,1.76,1.33,3.48,2.12,5.13l-7.02,8.94c-2.05,2.62-1.82,6.39,.53,8.78l16.69,16.66c2.35,2.39,6.13,2.62,8.78,.53l8.91-6.99c1.69,.76,3.41,1.49,5.17,2.12l1.36,11.26c.4,3.35,3.21,5.83,6.56,5.83h23.58c3.35,0,6.19-2.48,6.59-5.83l1.36-11.26c1.76-.63,3.48-1.36,5.13-2.12l8.94,6.99c2.62,2.09,6.39,1.85,8.78-.53l16.66-16.66c2.38-2.39,2.62-6.16,.53-8.78l-6.99-8.94c.76-1.66,1.49-3.38,2.12-5.13l11.26-1.36c3.31-.4,5.83-3.21,5.83-6.59v-23.58c0-3.35-2.48-6.16-5.83-6.56Zm-35.64,18.35c0,16.83-13.71,30.54-30.54,30.54s-30.51-13.71-30.51-30.54,13.68-30.51,30.51-30.51,30.54,13.68,30.54,30.51Z"/>
</svg>