<?xml version="1.0" encoding="UTF-8"?>
<svg id="Capa_1" data-name="Capa 1" xmlns="http://www.w3.org/2000/svg" viewBox="0 0 241 285">
  <defs>
    <style>
      .cls-1 {
        fill: #401424;
        fill-rule: evenodd;
      }
    </style>
  </defs>
  <path class="cls-1" d="M131.47,51v44.35c0,.86,.35,1.64,.91,2.2,.56,.56,1.34,.91,2.2,.91h17.67c.86,0,1.64-.35,2.2-.91,.56-.56,.91-1.34,.91-2.2V51c0-.86-.35-1.64-.91-2.2-.56-.56-1.34-.91-2.2-.91h-17.67c-.86,0-1.64,.35-2.2,.91-.56,.56-.91,1.34-.91,2.2Z"/>
  <path class="cls-1" d="M33.7,231.39H207.09c4.35,0,7.91-3.56,7.91-7.91V65.93l-23.74-23.74h-26.6v61.98H76.13V42.19H33.7c-4.35,0-7.91,3.56-7.91,7.91V223.49c0,4.35,3.56,7.91,7.91,7.91h0Zm38.35-85.15h96.7c3.99,0,7.25,3.26,7.25,7.25v55.62c0,3.99-3.26,7.25-7.25,7.25H72.05c-3.99,0-7.25-3.26-7.25-7.25v-55.62c0-3.99,3.26-7.25,7.25-7.25Z"/>
</svg>