<?xml version="1.0" encoding="UTF-8"?>
<svg id="Capa_1" data-name="Capa 1" xmlns="http://www.w3.org/2000/svg" viewBox="0 0 241 285">
  <defs>
    <style>
      .cls-1 {
        fill: #401424;
      }
    </style>
  </defs>
  <path class="cls-1" d="M92.63,45.25c-34.94,17.18-49.33,59.42-32.16,94.36,17.18,34.94,59.42,49.33,94.36,32.16,34.94-17.17,49.33-59.42,32.16-94.35-17.17-34.94-59.42-49.33-94.36-32.16Zm56.02,113.95c-28,13.76-61.85,2.22-75.61-25.77-13.76-28-2.23-61.85,25.77-75.61,28-13.76,61.85-2.22,75.61,25.77,13.76,28,2.23,61.85-25.77,75.61Z"/>
  <rect class="cls-1" x="143.66" y="160.9" width="21.85" height="20.74" transform="translate(-59.71 85.78) rotate(-26.18)"/>
  <path class="cls-1" d="M199.98,238.84c7.24,14.73-13.27,22.53-19.61,9.64-6.34-12.89-28.07-57.1-28.07-57.1l19.61-9.64s20.83,42.36,28.07,57.1Z"/>
  <rect class="cls-1" x="152.09" y="170.21" width="14.14" height="20.74" transform="translate(-63.34 88.74) rotate(-26.18)"/>
</svg>