<?xml version="1.0" encoding="UTF-8"?>
<svg id="Capa_1" data-name="Capa 1" xmlns="http://www.w3.org/2000/svg" viewBox="0 0 241 285">
  <defs>
    <style>
      .cls-1 {
        fill: #401424;
      }
    </style>
  </defs>
  <path class="cls-1" d="M175.54,136.23l-26.63-9.8-3.53,8.59,7.44,2.73-27.1,89.42-3.43-60.04h-10.56l-3.37,58.95-26.81-88.46,7.13-2.62-3.56-8.58-26.31,9.67-.34,.14c-.44,.2-44.31,21.05-41.29,74.66l.04,.69,.24,.64c.23,.63,5.68,14.66,32,14.66,.98,0,1.99-.03,3.03-.07,12.47,10.82,35.96,17.19,63.83,17.19,.44,0,.89,0,1.33,0,21.86-.16,49.61-4.8,63.98-17.18,1,.04,1.98,.06,2.92,.06,26.31,0,31.77-14.03,32-14.66l.24-.64,.04-.69c3.03-53.61-40.84-74.46-41.29-74.66Zm1.31,71.16c-11.01,4.42-22.32,5.2-28.84,5.2-2.2,0-3.84-.09-4.76-.15v-5.55c.29,.03,19.02,2.23,33.6-5.28v5.79Zm-67.37-59.92s-3.2,8.24-3.18,8.28l5.09,7.23h11.24l5.09-7.23c-.04-.13-3.18-8.28-3.18-8.28-.37,.05-14.68,.05-15.06,0Zm-28.94-48.05c6.56,19.18,18.9,33.75,36.47,33.75s29.45-14.36,36.22-33.51c13.66-13.78,10.44-24.08,7.28-29.01,7.43-35.55-15.26-55.59-44.79-55.59-52.94,0-43.7,58-43.7,58,.06,0,.11,0,.17,.01-2.42,5.47-3.13,14.64,8.34,26.34Zm50.47-46.35c3.89,6.98,11.93,11.67,18.62,14.53-.67,27.52-13.02,56.29-32.63,56.29-18.26,0-30.22-24.96-32.32-50.61,22.96-1.35,38.15-12.23,46.33-20.21Z"/>
</svg>